<mxfile host="app.diagrams.net" modified="2023-07-18T04:43:38.964Z" agent="Mozilla/5.0 (Macintosh; Intel Mac OS X 10_15_7) AppleWebKit/537.36 (KHTML, like Gecko) Chrome/114.0.0.0 Safari/537.36" etag="LUeTZwPiW_kTU6duJ0iS" version="21.6.2" type="device">
  <diagram name="Page-1" id="o6bzLddr0E3VtlY-uZwa">
    <mxGraphModel dx="1468" dy="997" grid="1" gridSize="10" guides="1" tooltips="1" connect="1" arrows="1" fold="1" page="1" pageScale="1" pageWidth="1654" pageHeight="2336" math="0" shadow="0">
      <root>
        <mxCell id="0" />
        <mxCell id="1" parent="0" />
        <mxCell id="eBzBpxDYSVlYIeyz1Agv-7" value="&lt;span style=&quot;color: rgb(0, 0, 0); font-family: Helvetica; font-style: normal; font-variant-ligatures: normal; font-variant-caps: normal; font-weight: 400; letter-spacing: normal; orphans: 2; text-align: center; text-indent: 0px; text-transform: none; widows: 2; word-spacing: 0px; -webkit-text-stroke-width: 0px; background-color: rgb(251, 251, 251); text-decoration-thickness: initial; text-decoration-style: initial; text-decoration-color: initial; float: none; display: inline !important;&quot;&gt;&lt;font style=&quot;font-size: 14px;&quot;&gt;Short Url Id Generator&lt;/font&gt;&lt;/span&gt;" style="rounded=0;whiteSpace=wrap;html=1;" parent="1" vertex="1">
          <mxGeometry x="270" y="170" width="110" height="100" as="geometry" />
        </mxCell>
        <mxCell id="eBzBpxDYSVlYIeyz1Agv-8" value="" style="endArrow=classic;html=1;rounded=0;entryX=0;entryY=0.5;entryDx=0;entryDy=0;" parent="1" target="eBzBpxDYSVlYIeyz1Agv-7" edge="1">
          <mxGeometry width="50" height="50" relative="1" as="geometry">
            <mxPoint x="120" y="220" as="sourcePoint" />
            <mxPoint x="510" y="300" as="targetPoint" />
          </mxGeometry>
        </mxCell>
        <mxCell id="eBzBpxDYSVlYIeyz1Agv-9" value="&lt;font style=&quot;font-size: 12px;&quot;&gt;&lt;b&gt;POST&lt;/b&gt; /short-url&lt;br&gt;Body: LongUrl&lt;br&gt;&lt;/font&gt;" style="text;html=1;align=center;verticalAlign=middle;resizable=0;points=[];autosize=1;strokeColor=none;fillColor=none;" parent="1" vertex="1">
          <mxGeometry x="125" y="182.8" width="110" height="40" as="geometry" />
        </mxCell>
        <mxCell id="eBzBpxDYSVlYIeyz1Agv-10" value="&lt;font style=&quot;font-size: 14px;&quot;&gt;Base62 &lt;br&gt;Encoder&lt;/font&gt;" style="rounded=0;whiteSpace=wrap;html=1;" parent="1" vertex="1">
          <mxGeometry x="480" y="170" width="110" height="100" as="geometry" />
        </mxCell>
        <mxCell id="eBzBpxDYSVlYIeyz1Agv-11" value="" style="endArrow=classic;html=1;rounded=0;exitX=1;exitY=0.5;exitDx=0;exitDy=0;entryX=0;entryY=0.5;entryDx=0;entryDy=0;" parent="1" source="eBzBpxDYSVlYIeyz1Agv-7" target="eBzBpxDYSVlYIeyz1Agv-10" edge="1">
          <mxGeometry width="50" height="50" relative="1" as="geometry">
            <mxPoint x="540" y="290" as="sourcePoint" />
            <mxPoint x="590" y="240" as="targetPoint" />
          </mxGeometry>
        </mxCell>
        <mxCell id="eBzBpxDYSVlYIeyz1Agv-12" value="&lt;font style=&quot;&quot;&gt;&lt;font style=&quot;font-size: 12px;&quot;&gt;51 bit &lt;br&gt;Hash Value&lt;/font&gt;&lt;br&gt;&lt;/font&gt;" style="text;html=1;align=center;verticalAlign=middle;resizable=0;points=[];autosize=1;strokeColor=none;fillColor=none;" parent="1" vertex="1">
          <mxGeometry x="385" y="185" width="80" height="40" as="geometry" />
        </mxCell>
        <mxCell id="eBzBpxDYSVlYIeyz1Agv-14" value="" style="endArrow=none;html=1;rounded=0;exitX=1;exitY=0.5;exitDx=0;exitDy=0;endFill=0;" parent="1" source="eBzBpxDYSVlYIeyz1Agv-10" edge="1">
          <mxGeometry width="50" height="50" relative="1" as="geometry">
            <mxPoint x="430" y="360" as="sourcePoint" />
            <mxPoint x="700" y="220" as="targetPoint" />
          </mxGeometry>
        </mxCell>
        <mxCell id="eBzBpxDYSVlYIeyz1Agv-15" value="&lt;font style=&quot;font-size: 12px;&quot;&gt;Short Url Id&lt;/font&gt;" style="text;html=1;align=center;verticalAlign=middle;resizable=0;points=[];autosize=1;strokeColor=none;fillColor=none;" parent="1" vertex="1">
          <mxGeometry x="590" y="192.8" width="80" height="30" as="geometry" />
        </mxCell>
        <mxCell id="eBzBpxDYSVlYIeyz1Agv-16" value="" style="shape=datastore;whiteSpace=wrap;html=1;" parent="1" vertex="1">
          <mxGeometry x="750" y="90" width="60" height="80" as="geometry" />
        </mxCell>
        <mxCell id="eBzBpxDYSVlYIeyz1Agv-18" value="" style="dashed=0;outlineConnect=0;html=1;align=center;labelPosition=center;verticalLabelPosition=bottom;verticalAlign=top;shape=mxgraph.weblogos.mongodb" parent="1" vertex="1">
          <mxGeometry x="770" y="122.8" width="20" height="40" as="geometry" />
        </mxCell>
        <mxCell id="eBzBpxDYSVlYIeyz1Agv-19" value="" style="image;sketch=0;aspect=fixed;html=1;points=[];align=center;fontSize=12;image=img/lib/mscae/Cache_Redis_Product.svg;" parent="1" vertex="1">
          <mxGeometry x="750" y="270" width="71.43" height="60" as="geometry" />
        </mxCell>
        <mxCell id="eBzBpxDYSVlYIeyz1Agv-21" value="" style="endArrow=classic;html=1;rounded=0;entryX=-0.003;entryY=0.861;entryDx=0;entryDy=0;entryPerimeter=0;" parent="1" target="eBzBpxDYSVlYIeyz1Agv-16" edge="1">
          <mxGeometry width="50" height="50" relative="1" as="geometry">
            <mxPoint x="700" y="220" as="sourcePoint" />
            <mxPoint x="730" y="220" as="targetPoint" />
          </mxGeometry>
        </mxCell>
        <mxCell id="eBzBpxDYSVlYIeyz1Agv-22" value="" style="endArrow=classic;html=1;rounded=0;entryX=0.021;entryY=0.259;entryDx=0;entryDy=0;entryPerimeter=0;" parent="1" target="eBzBpxDYSVlYIeyz1Agv-19" edge="1">
          <mxGeometry width="50" height="50" relative="1" as="geometry">
            <mxPoint x="700" y="220" as="sourcePoint" />
            <mxPoint x="730" y="220" as="targetPoint" />
          </mxGeometry>
        </mxCell>
        <mxCell id="eBzBpxDYSVlYIeyz1Agv-23" value="&lt;b&gt;&lt;font style=&quot;font-size: 13px;&quot;&gt;MongoDb&lt;/font&gt;&lt;/b&gt;" style="text;html=1;align=center;verticalAlign=middle;resizable=0;points=[];autosize=1;strokeColor=none;fillColor=none;" parent="1" vertex="1">
          <mxGeometry x="740" y="162.8" width="80" height="30" as="geometry" />
        </mxCell>
        <mxCell id="eBzBpxDYSVlYIeyz1Agv-24" value="&lt;b&gt;&lt;font style=&quot;font-size: 13px;&quot;&gt;Redis Cache&lt;/font&gt;&lt;/b&gt;" style="text;html=1;align=center;verticalAlign=middle;resizable=0;points=[];autosize=1;strokeColor=none;fillColor=none;" parent="1" vertex="1">
          <mxGeometry x="735.71" y="330" width="100" height="30" as="geometry" />
        </mxCell>
        <mxCell id="eBzBpxDYSVlYIeyz1Agv-27" value="" style="endArrow=none;html=1;rounded=0;fillColor=#dae8fc;strokeColor=#6c8ebf;" parent="1" edge="1">
          <mxGeometry width="50" height="50" relative="1" as="geometry">
            <mxPoint x="250" y="320" as="sourcePoint" />
            <mxPoint x="250" y="100" as="targetPoint" />
          </mxGeometry>
        </mxCell>
        <mxCell id="eBzBpxDYSVlYIeyz1Agv-28" value="" style="endArrow=none;html=1;rounded=0;fillColor=#dae8fc;strokeColor=#6c8ebf;" parent="1" edge="1">
          <mxGeometry width="50" height="50" relative="1" as="geometry">
            <mxPoint x="250" y="100" as="sourcePoint" />
            <mxPoint x="670" y="100" as="targetPoint" />
          </mxGeometry>
        </mxCell>
        <mxCell id="eBzBpxDYSVlYIeyz1Agv-29" value="" style="endArrow=none;html=1;rounded=0;fillColor=#dae8fc;strokeColor=#6c8ebf;" parent="1" edge="1">
          <mxGeometry width="50" height="50" relative="1" as="geometry">
            <mxPoint x="670" y="100" as="sourcePoint" />
            <mxPoint x="670" y="320" as="targetPoint" />
          </mxGeometry>
        </mxCell>
        <mxCell id="eBzBpxDYSVlYIeyz1Agv-30" value="" style="endArrow=none;html=1;rounded=0;fillColor=#dae8fc;strokeColor=#6c8ebf;" parent="1" edge="1">
          <mxGeometry width="50" height="50" relative="1" as="geometry">
            <mxPoint x="250" y="320" as="sourcePoint" />
            <mxPoint x="670" y="320" as="targetPoint" />
          </mxGeometry>
        </mxCell>
        <mxCell id="eBzBpxDYSVlYIeyz1Agv-31" value="&lt;font size=&quot;1&quot; style=&quot;&quot;&gt;&lt;b style=&quot;font-size: 14px;&quot;&gt;URL Shortener Server&lt;/b&gt;&lt;/font&gt;" style="text;html=1;align=center;verticalAlign=middle;resizable=0;points=[];autosize=1;strokeColor=none;fillColor=none;" parent="1" vertex="1">
          <mxGeometry x="375" y="100" width="170" height="30" as="geometry" />
        </mxCell>
        <mxCell id="eBzBpxDYSVlYIeyz1Agv-32" value="" style="image;sketch=0;aspect=fixed;html=1;points=[];align=center;fontSize=12;image=img/lib/mscae/Docker.svg;" parent="1" vertex="1">
          <mxGeometry x="440" y="126.4" width="40" height="32.8" as="geometry" />
        </mxCell>
        <mxCell id="eBzBpxDYSVlYIeyz1Agv-33" value="" style="endArrow=classic;html=1;rounded=0;exitX=0.424;exitY=0.923;exitDx=0;exitDy=0;exitPerimeter=0;" parent="1" edge="1">
          <mxGeometry width="50" height="50" relative="1" as="geometry">
            <mxPoint x="633.9199999999998" y="219.9999999999999" as="sourcePoint" />
            <mxPoint x="120" y="250" as="targetPoint" />
            <Array as="points">
              <mxPoint x="634" y="299.51" />
              <mxPoint x="380" y="299.51" />
              <mxPoint x="200" y="299.51" />
              <mxPoint x="200" y="249.51" />
            </Array>
          </mxGeometry>
        </mxCell>
        <mxCell id="eBzBpxDYSVlYIeyz1Agv-35" value="&lt;font style=&quot;font-size: 12px;&quot;&gt;Return ShortUrl =&amp;gt; https://shortdomain/abcxyz123&lt;/font&gt;" style="text;html=1;align=center;verticalAlign=middle;resizable=0;points=[];autosize=1;strokeColor=none;fillColor=none;" parent="1" vertex="1">
          <mxGeometry x="280" y="270" width="290" height="30" as="geometry" />
        </mxCell>
        <mxCell id="eBzBpxDYSVlYIeyz1Agv-37" value="" style="sketch=0;outlineConnect=0;fontColor=#232F3E;gradientColor=none;fillColor=#232F3D;strokeColor=none;dashed=0;verticalLabelPosition=bottom;verticalAlign=top;align=center;html=1;fontSize=12;fontStyle=0;aspect=fixed;pointerEvents=1;shape=mxgraph.aws4.client;" parent="1" vertex="1">
          <mxGeometry x="40" y="204" width="78" height="76" as="geometry" />
        </mxCell>
        <mxCell id="eBzBpxDYSVlYIeyz1Agv-38" value="&lt;b&gt;&lt;font style=&quot;font-size: 13px;&quot;&gt;Client&lt;/font&gt;&lt;/b&gt;" style="text;html=1;align=center;verticalAlign=middle;resizable=0;points=[];autosize=1;strokeColor=none;fillColor=none;" parent="1" vertex="1">
          <mxGeometry x="49" y="280" width="60" height="30" as="geometry" />
        </mxCell>
        <mxCell id="eBzBpxDYSVlYIeyz1Agv-40" value="" style="sketch=0;outlineConnect=0;fontColor=#232F3E;gradientColor=none;fillColor=#232F3D;strokeColor=none;dashed=0;verticalLabelPosition=bottom;verticalAlign=top;align=center;html=1;fontSize=12;fontStyle=0;aspect=fixed;pointerEvents=1;shape=mxgraph.aws4.client;" parent="1" vertex="1">
          <mxGeometry x="184.28" y="562" width="78" height="76" as="geometry" />
        </mxCell>
        <mxCell id="eBzBpxDYSVlYIeyz1Agv-41" value="" style="endArrow=classic;html=1;rounded=0;" parent="1" edge="1">
          <mxGeometry width="50" height="50" relative="1" as="geometry">
            <mxPoint x="264.28" y="570" as="sourcePoint" />
            <mxPoint x="404.28" y="570" as="targetPoint" />
          </mxGeometry>
        </mxCell>
        <mxCell id="eBzBpxDYSVlYIeyz1Agv-42" value="&lt;font style=&quot;font-size: 13px;&quot;&gt;URL Shortener&lt;br&gt;Server&lt;/font&gt;" style="rounded=0;whiteSpace=wrap;html=1;" parent="1" vertex="1">
          <mxGeometry x="404.28" y="550" width="120" height="100" as="geometry" />
        </mxCell>
        <mxCell id="eBzBpxDYSVlYIeyz1Agv-46" value="&lt;b&gt;GET &lt;/b&gt;/{shortUrlId}" style="text;html=1;align=center;verticalAlign=middle;resizable=0;points=[];autosize=1;strokeColor=none;fillColor=none;" parent="1" vertex="1">
          <mxGeometry x="273.28" y="540" width="110" height="30" as="geometry" />
        </mxCell>
        <mxCell id="eBzBpxDYSVlYIeyz1Agv-47" value="" style="image;sketch=0;aspect=fixed;html=1;points=[];align=center;fontSize=12;image=img/lib/mscae/Cache_Redis_Product.svg;" parent="1" vertex="1">
          <mxGeometry x="664.28" y="460" width="71.43" height="60" as="geometry" />
        </mxCell>
        <mxCell id="eBzBpxDYSVlYIeyz1Agv-48" value="" style="endArrow=classic;html=1;rounded=0;exitX=1.002;exitY=0.42;exitDx=0;exitDy=0;exitPerimeter=0;" parent="1" source="eBzBpxDYSVlYIeyz1Agv-42" target="eBzBpxDYSVlYIeyz1Agv-47" edge="1">
          <mxGeometry width="50" height="50" relative="1" as="geometry">
            <mxPoint x="524.28" y="650" as="sourcePoint" />
            <mxPoint x="574.28" y="600" as="targetPoint" />
          </mxGeometry>
        </mxCell>
        <mxCell id="eBzBpxDYSVlYIeyz1Agv-50" value="Fetch from cache&lt;br&gt;" style="text;html=1;align=center;verticalAlign=middle;resizable=0;points=[];autosize=1;strokeColor=none;fillColor=none;rotation=330;" parent="1" vertex="1">
          <mxGeometry x="529.28" y="520" width="120" height="30" as="geometry" />
        </mxCell>
        <mxCell id="eBzBpxDYSVlYIeyz1Agv-51" value="" style="shape=datastore;whiteSpace=wrap;html=1;" parent="1" vertex="1">
          <mxGeometry x="664.28" y="680" width="60" height="80" as="geometry" />
        </mxCell>
        <mxCell id="eBzBpxDYSVlYIeyz1Agv-52" value="" style="dashed=0;outlineConnect=0;html=1;align=center;labelPosition=center;verticalLabelPosition=bottom;verticalAlign=top;shape=mxgraph.weblogos.mongodb" parent="1" vertex="1">
          <mxGeometry x="684.28" y="712.8" width="20" height="40" as="geometry" />
        </mxCell>
        <mxCell id="eBzBpxDYSVlYIeyz1Agv-53" value="&lt;b&gt;&lt;font style=&quot;font-size: 13px;&quot;&gt;MongoDb&lt;/font&gt;&lt;/b&gt;" style="text;html=1;align=center;verticalAlign=middle;resizable=0;points=[];autosize=1;strokeColor=none;fillColor=none;" parent="1" vertex="1">
          <mxGeometry x="654.28" y="752.8" width="80" height="30" as="geometry" />
        </mxCell>
        <mxCell id="eBzBpxDYSVlYIeyz1Agv-55" value="" style="endArrow=classic;html=1;rounded=0;entryX=-0.023;entryY=0.23;entryDx=0;entryDy=0;entryPerimeter=0;" parent="1" target="eBzBpxDYSVlYIeyz1Agv-51" edge="1">
          <mxGeometry width="50" height="50" relative="1" as="geometry">
            <mxPoint x="524.28" y="620" as="sourcePoint" />
            <mxPoint x="774.28" y="500" as="targetPoint" />
          </mxGeometry>
        </mxCell>
        <mxCell id="eBzBpxDYSVlYIeyz1Agv-56" value="Fetch from database&lt;br&gt;(If not in cache)" style="text;html=1;align=center;verticalAlign=middle;resizable=0;points=[];autosize=1;strokeColor=none;fillColor=none;rotation=30;" parent="1" vertex="1">
          <mxGeometry x="524.28" y="655" width="130" height="40" as="geometry" />
        </mxCell>
        <mxCell id="eBzBpxDYSVlYIeyz1Agv-57" value="" style="image;sketch=0;aspect=fixed;html=1;points=[];align=center;fontSize=12;image=img/lib/mscae/Docker.svg;" parent="1" vertex="1">
          <mxGeometry x="449.28" y="620" width="30" height="24.6" as="geometry" />
        </mxCell>
        <mxCell id="eBzBpxDYSVlYIeyz1Agv-58" value="" style="endArrow=classic;html=1;rounded=0;exitX=-0.014;exitY=0.806;exitDx=0;exitDy=0;exitPerimeter=0;entryX=0.116;entryY=0.011;entryDx=0;entryDy=0;entryPerimeter=0;" parent="1" source="eBzBpxDYSVlYIeyz1Agv-42" target="eBzBpxDYSVlYIeyz1Agv-59" edge="1">
          <mxGeometry width="50" height="50" relative="1" as="geometry">
            <mxPoint x="384.28" y="530" as="sourcePoint" />
            <mxPoint x="284.28" y="630" as="targetPoint" />
          </mxGeometry>
        </mxCell>
        <mxCell id="eBzBpxDYSVlYIeyz1Agv-59" value="Return LongUrl&lt;br&gt;https://longdomain/longpath" style="text;html=1;align=center;verticalAlign=middle;resizable=0;points=[];autosize=1;strokeColor=none;fillColor=none;" parent="1" vertex="1">
          <mxGeometry x="244.28" y="630" width="170" height="40" as="geometry" />
        </mxCell>
        <mxCell id="eBzBpxDYSVlYIeyz1Agv-60" value="&lt;b&gt;&lt;font style=&quot;font-size: 13px;&quot;&gt;Client&lt;/font&gt;&lt;/b&gt;" style="text;html=1;align=center;verticalAlign=middle;resizable=0;points=[];autosize=1;strokeColor=none;fillColor=none;" parent="1" vertex="1">
          <mxGeometry x="193.28" y="635" width="60" height="30" as="geometry" />
        </mxCell>
        <mxCell id="eBzBpxDYSVlYIeyz1Agv-61" value="&lt;b&gt;&lt;font style=&quot;font-size: 13px;&quot;&gt;Redis Cache&lt;/font&gt;&lt;/b&gt;" style="text;html=1;align=center;verticalAlign=middle;resizable=0;points=[];autosize=1;strokeColor=none;fillColor=none;" parent="1" vertex="1">
          <mxGeometry x="650.0000000000001" y="520" width="100" height="30" as="geometry" />
        </mxCell>
      </root>
    </mxGraphModel>
  </diagram>
</mxfile>
